<?xml version="1.0" standalone="no"?><!DOCTYPE svg PUBLIC "-//W3C//DTD SVG 1.1//EN" "http://www.w3.org/Graphics/SVG/1.1/DTD/svg11.dtd"><svg t="1620057794310" class="icon" viewBox="0 0 1024 1024" version="1.1" xmlns="http://www.w3.org/2000/svg" p-id="1991" xmlns:xlink="http://www.w3.org/1999/xlink" width="64" height="64"><defs><style type="text/css"></style></defs><path d="M365.860571 724.992H866.011429c16.694857 0 31.268571-13.714286 31.268571-32.128 0-18.432-14.573714-32.146286-31.268571-32.146286H373.138286c-24.429714 0-39.424-17.152-43.282286-43.282285l-6.857143-45.001143h543.853714c62.573714 0 94.72-38.582857 103.716572-99.858286l34.285714-226.724571c0.859429-5.558857 1.718857-12.434286 1.718857-16.274286 0-20.571429-15.433143-34.724571-39.003428-34.724572H267.721143l-8.155429-54.418285c-4.278857-33.005714-16.274286-49.737143-59.977143-49.737143H49.133714C32 90.697143 17.426286 105.728 17.426286 122.88c0 17.554286 14.573714 32.566857 31.725714 32.566857h144.841143l68.571428 470.564572c9.014857 60.854857 41.142857 98.998857 103.296 98.998857z m567.844572-465.426286L903.314286 464.859429c-3.437714 26.569143-17.572571 42.861714-42.861715 42.861714l-546.870857 0.420571-36.425143-248.576zM399.725714 933.302857a68.864 68.864 0 0 0 69.430857-69.430857 69.138286 69.138286 0 0 0-69.430857-69.430857c-38.985143 0-69.851429 30.866286-69.851428 69.430857 0 39.003429 30.866286 69.430857 69.851428 69.430857z m400.713143 0c39.003429 0 69.851429-30.427429 69.851429-69.430857 0-38.582857-30.848-69.430857-69.851429-69.430857-38.564571 0-69.851429 30.866286-69.851428 69.430857 0 39.003429 31.286857 69.430857 69.851428 69.430857z" p-id="1992"></path></svg>