<?xml version="1.0" standalone="no"?><!DOCTYPE svg PUBLIC "-//W3C//DTD SVG 1.1//EN" "http://www.w3.org/Graphics/SVG/1.1/DTD/svg11.dtd"><svg t="1620057861014" class="icon" viewBox="0 0 1024 1024" version="1.1" xmlns="http://www.w3.org/2000/svg" p-id="2768" xmlns:xlink="http://www.w3.org/1999/xlink" width="64" height="64"><defs><style type="text/css"></style></defs><path d="M304 464m-48 0a48 48 0 1 0 96 0 48 48 0 1 0-96 0Z" p-id="2769"></path><path d="M752 464m-48 0a48 48 0 1 0 96 0 48 48 0 1 0-96 0Z" p-id="2770"></path><path d="M528 464m-48 0a48 48 0 1 0 96 0 48 48 0 1 0-96 0Z" p-id="2771"></path><path d="M512 64C265.6 64 64 243.2 64 460.8c0 115.2 57.6 224 156.8 300.8V928c0 12.8 6.4 22.4 16 28.8 3.2 3.2 9.6 3.2 16 3.2s12.8 0 16-3.2l172.8-105.6c25.6 3.2 48 6.4 70.4 6.4 246.4 0 448-179.2 448-396.8S758.4 64 512 64z m0 729.6c-22.4 0-48-3.2-73.6-6.4-6.4 0-16 0-22.4 3.2l-134.4 80v-128c0-9.6-6.4-19.2-12.8-25.6-89.6-64-140.8-156.8-140.8-259.2C128 278.4 300.8 128 512 128s384 150.4 384 332.8-172.8 332.8-384 332.8z" p-id="2772"></path></svg>